# xmcd
#
# Track frame offsets:
#	150
#	6546
#	13846
#	21059
#	26653
#	36696
#	43801
#	54249
#	62794
#	76769
#	87091
#	97858
#	110040
#	119008
#	129756
#	135900
#	145248
#	154981
#	168010
#	179291
#
# Disc length: 2562 seconds
#
# Revision: 1
# Processed by: cddbd v1.5.2PL0 Copyright (c) Steve Scherf et al.
# Submitted via: audiograbber 1.83.01
#
DISCID=050a0014
DTITLE=Johnny Cash - June Carter - Johnny and June (2)
DYEAR=2009
DGENRE=
TTITLE0=Take Me Back To Tulsa
TTITLE1=Dude Cowboy
TTITLE2=Reuben
TTITLE3=Life Gets Tedious
TTITLE4=It´s Raining Here This Morning
TTITLE5=The New Streamliner
TTITLE6=Eight More Miles To Louisville
TTITLE7=Grandma Told Me So
TTITLE8=Fair And tender Ladies
TTITLE9=Juke Box Blues
TTITLE10=No Swallerin´ Place
TTITLE11=Love Oh Crazy Love
TTITLE12=You Flopped When You Got Me Alone
TTITLE13=We´ve Got Things To Do
TTITLE14=Great Speckled Bird
TTITLE15=No Letter Today
TTITLE16=I Wish I Had Never Met Sunshine
TTITLE17=Country Girl
TTITLE18=Root Hog Or Die
TTITLE19=Baby, It´s Cold Outside
EXTD=
EXTT0=
EXTT1=
EXTT2=
EXTT3=
EXTT4=
EXTT5=
EXTT6=
EXTT7=
EXTT8=
EXTT9=
EXTT10=
EXTT11=
EXTT12=
EXTT13=
EXTT14=
EXTT15=
EXTT16=
EXTT17=
EXTT18=
EXTT19=
PLAYORDER=
